<svg width="11" height="12" viewBox="0 0 11 12" fill="none" xmlns="http://www.w3.org/2000/svg">
<path d="M5.41675 0.833313H2.50008C2.27907 0.833313 2.06711 0.92111 1.91083 1.07739C1.75455 1.23367 1.66675 1.44563 1.66675 1.66665V8.33331C1.66675 8.55433 1.75455 8.76629 1.91083 8.92257C2.06711 9.07885 2.27907 9.16665 2.50008 9.16665H7.50008C7.72109 9.16665 7.93306 9.07885 8.08934 8.92257C8.24562 8.76629 8.33341 8.55433 8.33341 8.33331V3.74998M5.41675 0.833313L8.33341 3.74998M5.41675 0.833313V3.74998H8.33341" stroke="#D9D9D9" stroke-linecap="round" stroke-linejoin="round"/>
<g clip-path="url(#clip0_87_399)">
<path d="M6.625 7.625L8.09792 11.1604L8.62083 9.62083L10.1604 9.09792L6.625 7.625Z" fill="#252525"/>
<path d="M8.70833 9.70833L9.95833 10.9583L8.70833 9.70833Z" fill="#252525"/>
<path d="M8.70833 9.70833L9.95833 10.9583M6.625 7.625L8.09792 11.1604L8.62083 9.62083L10.1604 9.09792L6.625 7.625Z" stroke="#D9D9D9" stroke-width="0.5" stroke-linecap="round" stroke-linejoin="round"/>
</g>
<defs>
<clipPath id="clip0_87_399">
<rect width="5" height="5" fill="white" transform="translate(6 7)"/>
</clipPath>
</defs>
</svg>
