<svg width="40" height="40" viewBox="0 0 40 40" fill="none" xmlns="http://www.w3.org/2000/svg">
<path d="M18.3333 28.3333H21.6667V21.6667H28.3333V18.3333H21.6667V11.6667H18.3333V18.3333H11.6667V21.6667H18.3333V28.3333ZM20 36.6667C17.6944 36.6667 15.5278 36.2361 13.5 35.375C11.4722 34.4861 9.70833 33.2917 8.20833 31.7917C6.70833 30.2917 5.51388 28.5278 4.625 26.5C3.76388 24.4722 3.33333 22.3056 3.33333 20C3.33333 17.6944 3.76388 15.5278 4.625 13.5C5.51388 11.4722 6.70833 9.70833 8.20833 8.20833C9.70833 6.70833 11.4722 5.52777 13.5 4.66666C15.5278 3.77778 17.6944 3.33333 20 3.33333C22.3056 3.33333 24.4722 3.77778 26.5 4.66666C28.5278 5.52777 30.2917 6.70833 31.7917 8.20833C33.2917 9.70833 34.4722 11.4722 35.3333 13.5C36.2222 15.5278 36.6667 17.6944 36.6667 20C36.6667 22.3056 36.2222 24.4722 35.3333 26.5C34.4722 28.5278 33.2917 30.2917 31.7917 31.7917C30.2917 33.2917 28.5278 34.4861 26.5 35.375C24.4722 36.2361 22.3056 36.6667 20 36.6667ZM20 33.3333C23.7222 33.3333 26.875 32.0417 29.4583 29.4583C32.0417 26.875 33.3333 23.7222 33.3333 20C33.3333 16.2778 32.0417 13.125 29.4583 10.5417C26.875 7.95833 23.7222 6.66666 20 6.66666C16.2778 6.66666 13.125 7.95833 10.5417 10.5417C7.95833 13.125 6.66666 16.2778 6.66666 20C6.66666 23.7222 7.95833 26.875 10.5417 29.4583C13.125 32.0417 16.2778 33.3333 20 33.3333Z" fill="#D9D9D9"/>
</svg>
