<svg width="40" height="40" viewBox="0 0 40 40" fill="none" xmlns="http://www.w3.org/2000/svg">
<path d="M11.6667 15V11.6667H35V15H11.6667ZM11.6667 21.6667V18.3333H35V21.6667H11.6667ZM11.6667 28.3333V25H35V28.3333H11.6667ZM6.66667 15C6.19444 15 5.79861 14.8403 5.47917 14.5208C5.15972 14.2014 5 13.8056 5 13.3333C5 12.8611 5.15972 12.4653 5.47917 12.1458C5.79861 11.8264 6.19444 11.6667 6.66667 11.6667C7.13889 11.6667 7.53472 11.8264 7.85417 12.1458C8.17361 12.4653 8.33333 12.8611 8.33333 13.3333C8.33333 13.8056 8.17361 14.2014 7.85417 14.5208C7.53472 14.8403 7.13889 15 6.66667 15ZM6.66667 21.6667C6.19444 21.6667 5.79861 21.5069 5.47917 21.1875C5.15972 20.8681 5 20.4722 5 20C5 19.5278 5.15972 19.1319 5.47917 18.8125C5.79861 18.4931 6.19444 18.3333 6.66667 18.3333C7.13889 18.3333 7.53472 18.4931 7.85417 18.8125C8.17361 19.1319 8.33333 19.5278 8.33333 20C8.33333 20.4722 8.17361 20.8681 7.85417 21.1875C7.53472 21.5069 7.13889 21.6667 6.66667 21.6667ZM6.66667 28.3333C6.19444 28.3333 5.79861 28.1736 5.47917 27.8542C5.15972 27.5347 5 27.1389 5 26.6667C5 26.1944 5.15972 25.7986 5.47917 25.4792C5.79861 25.1597 6.19444 25 6.66667 25C7.13889 25 7.53472 25.1597 7.85417 25.4792C8.17361 25.7986 8.33333 26.1944 8.33333 26.6667C8.33333 27.1389 8.17361 27.5347 7.85417 27.8542C7.53472 28.1736 7.13889 28.3333 6.66667 28.3333Z" fill="#D9D9D9"/>
</svg>
