<svg width="10" height="10" viewBox="0 0 10 10" fill="none" xmlns="http://www.w3.org/2000/svg">
<g clip-path="url(#clip0_87_397)">
<path d="M5.00008 6.25002C5.69044 6.25002 6.25008 5.69038 6.25008 5.00002C6.25008 4.30966 5.69044 3.75002 5.00008 3.75002C4.30973 3.75002 3.75008 4.30966 3.75008 5.00002C3.75008 5.69038 4.30973 6.25002 5.00008 6.25002Z" stroke="#D9D9D9" stroke-linecap="round" stroke-linejoin="round"/>
<path d="M8.08341 6.25002C8.02795 6.37569 8.0114 6.5151 8.03591 6.65026C8.06042 6.78543 8.12486 6.91015 8.22091 7.00835L8.24591 7.03335C8.32339 7.11075 8.38486 7.20265 8.4268 7.30382C8.46873 7.40498 8.49032 7.51342 8.49032 7.62294C8.49032 7.73245 8.46873 7.84089 8.4268 7.94205C8.38486 8.04322 8.32339 8.13512 8.24591 8.21252C8.16852 8.29 8.07661 8.35147 7.97545 8.3934C7.87428 8.43534 7.76584 8.45693 7.65633 8.45693C7.54682 8.45693 7.43838 8.43534 7.33721 8.3934C7.23605 8.35147 7.14414 8.29 7.06675 8.21252L7.04175 8.18752C6.94355 8.09146 6.81882 8.02703 6.68366 8.00252C6.54849 7.97801 6.40909 7.99455 6.28341 8.05002C6.16018 8.10284 6.05507 8.19054 5.98104 8.30233C5.90701 8.41411 5.86728 8.54511 5.86675 8.67919V8.75002C5.86675 8.97103 5.77895 9.18299 5.62267 9.33927C5.46639 9.49556 5.25443 9.58335 5.03341 9.58335C4.8124 9.58335 4.60044 9.49556 4.44416 9.33927C4.28788 9.18299 4.20008 8.97103 4.20008 8.75002V8.71252C4.19686 8.57461 4.15221 8.44085 4.07196 8.32864C3.99171 8.21644 3.87955 8.13097 3.75008 8.08335C3.62441 8.02789 3.485 8.01134 3.34984 8.03585C3.21467 8.06036 3.08995 8.1248 2.99175 8.22085L2.96675 8.24585C2.88935 8.32333 2.79745 8.3848 2.69628 8.42674C2.59512 8.46867 2.48668 8.49026 2.37716 8.49026C2.26765 8.49026 2.15921 8.46867 2.05805 8.42674C1.95688 8.3848 1.86498 8.32333 1.78758 8.24585C1.7101 8.16846 1.64864 8.07655 1.6067 7.97539C1.56476 7.87422 1.54318 7.76578 1.54318 7.65627C1.54318 7.54676 1.56476 7.43832 1.6067 7.33715C1.64864 7.23599 1.7101 7.14408 1.78758 7.06669L1.81258 7.04169C1.90864 6.94349 1.97308 6.81876 1.99758 6.6836C2.02209 6.54843 2.00555 6.40903 1.95008 6.28335C1.89726 6.16012 1.80956 6.05501 1.69778 5.98098C1.58599 5.90695 1.45499 5.86722 1.32091 5.86669H1.25008C1.02907 5.86669 0.817106 5.77889 0.660826 5.62261C0.504545 5.46633 0.416748 5.25437 0.416748 5.03335C0.416748 4.81234 0.504545 4.60038 0.660826 4.4441C0.817106 4.28782 1.02907 4.20002 1.25008 4.20002H1.28758C1.4255 4.19679 1.55925 4.15215 1.67146 4.0719C1.78366 3.99165 1.86913 3.87949 1.91675 3.75002C1.97221 3.62435 1.98876 3.48494 1.96425 3.34977C1.93974 3.21461 1.8753 3.08989 1.77925 2.99169L1.75425 2.96669C1.67677 2.88929 1.6153 2.79739 1.57336 2.69622C1.53143 2.59506 1.50984 2.48662 1.50984 2.3771C1.50984 2.26759 1.53143 2.15915 1.57336 2.05799C1.6153 1.95682 1.67677 1.86491 1.75425 1.78752C1.83164 1.71004 1.92355 1.64857 2.02471 1.60664C2.12588 1.5647 2.23432 1.54311 2.34383 1.54311C2.45334 1.54311 2.56178 1.5647 2.66295 1.60664C2.76411 1.64857 2.85602 1.71004 2.93341 1.78752L2.95841 1.81252C3.05661 1.90858 3.18134 1.97301 3.3165 1.99752C3.45167 2.02203 3.59107 2.00548 3.71675 1.95002H3.75008C3.87332 1.8972 3.97842 1.8095 4.05245 1.69771C4.12648 1.58593 4.16621 1.45493 4.16675 1.32085V1.25002C4.16675 1.02901 4.25455 0.817045 4.41083 0.660765C4.56711 0.504484 4.77907 0.416687 5.00008 0.416687C5.22109 0.416687 5.43306 0.504484 5.58934 0.660765C5.74562 0.817045 5.83341 1.02901 5.83341 1.25002V1.28752C5.83395 1.4216 5.87368 1.55259 5.94771 1.66438C6.02174 1.77617 6.12684 1.86387 6.25008 1.91669C6.37575 1.97215 6.51516 1.9887 6.65033 1.96419C6.78549 1.93968 6.91021 1.87524 7.00841 1.77919L7.03341 1.75419C7.11081 1.67671 7.20272 1.61524 7.30388 1.5733C7.40505 1.53137 7.51348 1.50978 7.623 1.50978C7.73251 1.50978 7.84095 1.53137 7.94211 1.5733C8.04328 1.61524 8.13519 1.67671 8.21258 1.75419C8.29006 1.83158 8.35153 1.92349 8.39346 2.02465C8.4354 2.12582 8.45699 2.23426 8.45699 2.34377C8.45699 2.45328 8.4354 2.56172 8.39346 2.66289C8.35153 2.76405 8.29006 2.85596 8.21258 2.93335L8.18758 2.95835C8.09152 3.05655 8.02709 3.18128 8.00258 3.31644C7.97807 3.45161 7.99462 3.59101 8.05008 3.71669V3.75002C8.1029 3.87326 8.1906 3.97836 8.30239 4.05239C8.41417 4.12642 8.54517 4.16615 8.67925 4.16669H8.75008C8.97109 4.16669 9.18306 4.25448 9.33934 4.41076C9.49562 4.56704 9.58341 4.77901 9.58341 5.00002C9.58341 5.22103 9.49562 5.433 9.33934 5.58928C9.18306 5.74556 8.97109 5.83335 8.75008 5.83335H8.71258C8.5785 5.83389 8.44751 5.87362 8.33572 5.94765C8.22393 6.02168 8.13623 6.12678 8.08341 6.25002Z" stroke="#D9D9D9" stroke-linecap="round" stroke-linejoin="round"/>
</g>
<defs>
<clipPath id="clip0_87_397">
<rect width="10" height="10" fill="white"/>
</clipPath>
</defs>
</svg>
