<svg width="10" height="10" viewBox="0 0 10 10" fill="none" xmlns="http://www.w3.org/2000/svg">
<g clip-path="url(#clip0_74_471)">
<path d="M1.25 2.49998H2.08333M2.08333 2.49998H8.75M2.08333 2.49998V8.33331C2.08333 8.55433 2.17113 8.76629 2.32741 8.92257C2.48369 9.07885 2.69565 9.16665 2.91667 9.16665H7.08333C7.30435 9.16665 7.51631 9.07885 7.67259 8.92257C7.82887 8.76629 7.91667 8.55433 7.91667 8.33331V2.49998M3.33333 2.49998V1.66665C3.33333 1.44563 3.42113 1.23367 3.57741 1.07739C3.73369 0.92111 3.94565 0.833313 4.16667 0.833313H5.83333C6.05435 0.833313 6.26631 0.92111 6.42259 1.07739C6.57887 1.23367 6.66667 1.44563 6.66667 1.66665V2.49998M4.16667 4.58331V7.08331M5.83333 4.58331V7.08331" stroke="#D9D9D9" stroke-linecap="round" stroke-linejoin="round"/>
</g>
<defs>
<clipPath id="clip0_74_471">
<rect width="10" height="10" fill="white"/>
</clipPath>
</defs>
</svg>
