<svg width="26" height="20" viewBox="0 0 26 20" fill="none" xmlns="http://www.w3.org/2000/svg">
<path d="M3 20C2.3125 20 1.72396 19.7552 1.23438 19.2656C0.744792 18.776 0.5 18.1875 0.5 17.5V2.5C0.5 1.8125 0.744792 1.22396 1.23438 0.734375C1.72396 0.244792 2.3125 0 3 0H10.5L13 2.5H23C23.6875 2.5 24.276 2.74479 24.7656 3.23438C25.2552 3.72396 25.5 4.3125 25.5 5V17.5C25.5 18.1875 25.2552 18.776 24.7656 19.2656C24.276 19.7552 23.6875 20 23 20H3ZM3 17.5H23V5H11.9688L9.46875 2.5H3V17.5Z" fill="#D9D9D9"/>
<path d="M9.5 12.1667C9.17917 12.1667 8.90451 12.0524 8.67604 11.824C8.44757 11.5955 8.33333 11.3208 8.33333 11C8.33333 10.6792 8.44757 10.4045 8.67604 10.176C8.90451 9.94757 9.17917 9.83333 9.5 9.83333C9.82083 9.83333 10.0955 9.94757 10.324 10.176C10.5524 10.4045 10.6667 10.6792 10.6667 11C10.6667 11.3208 10.5524 11.5955 10.324 11.824C10.0955 12.0524 9.82083 12.1667 9.5 12.1667ZM13 12.1667C12.6792 12.1667 12.4045 12.0524 12.176 11.824C11.9476 11.5955 11.8333 11.3208 11.8333 11C11.8333 10.6792 11.9476 10.4045 12.176 10.176C12.4045 9.94757 12.6792 9.83333 13 9.83333C13.3208 9.83333 13.5955 9.94757 13.824 10.176C14.0524 10.4045 14.1667 10.6792 14.1667 11C14.1667 11.3208 14.0524 11.5955 13.824 11.824C13.5955 12.0524 13.3208 12.1667 13 12.1667ZM16.5 12.1667C16.1792 12.1667 15.9045 12.0524 15.676 11.824C15.4476 11.5955 15.3333 11.3208 15.3333 11C15.3333 10.6792 15.4476 10.4045 15.676 10.176C15.9045 9.94757 16.1792 9.83333 16.5 9.83333C16.8208 9.83333 17.0955 9.94757 17.324 10.176C17.5524 10.4045 17.6667 10.6792 17.6667 11C17.6667 11.3208 17.5524 11.5955 17.324 11.824C17.0955 12.0524 16.8208 12.1667 16.5 12.1667Z" fill="#D9D9D9"/>
</svg>
